Coordinates
version=1
nRows=29
nColumns=24
inDegrees=yes

Units are S.I. units (second, meters, Newtons, ...)
Angles are in degrees.

endheader
time	pelvis_tilt	pelvis_list	pelvis_rotation	pelvis_tx	pelvis_ty	pelvis_tz	hip_flexion_r	hip_adduction_r	hip_rotation_r	knee_angle_r	ankle_angle_r	subtalar_angle_r	mtp_angle_r	hip_flexion_l	hip_adduction_l	hip_rotation_l	knee_angle_l	ankle_angle_l	subtalar_angle_l	mtp_angle_l	lumbar_extension	lumbar_bending	lumbar_rotation
      5.94000000	     -3.03669053	      9.40855684	     -4.67317217	      1.84325514	      1.01583740	     -0.27919022	      9.79063964	    -14.00299579	     -5.01929381	    -63.36925618	    -11.11949223	     -2.38044183	      0.00000000	     18.05872057	     11.54632376	     -6.08513001	    -16.20866018	      8.73612036	     -7.96902684	      0.00000000	     -8.09417943	    -11.76416024	      2.86444954
      5.94500000	     -2.97695728	      9.47259391	     -4.67808141	      1.84961537	      1.01661576	     -0.27960847	     10.55532049	    -14.04055775	     -4.92985843	    -64.20157510	     -9.88204209	     -2.35359383	      0.00000000	     17.46391005	     11.71486965	     -5.94519792	    -15.92332446	      8.97711908	     -7.98740728	      0.00000000	     -8.15619195	    -11.79995093	      2.69825098
      5.95000000	     -2.91198996	      9.53731462	     -4.68110853	      1.85594144	      1.01740999	     -0.28009185	     11.31042121	    -14.08208481	     -4.85784948	    -64.96786238	     -8.51434522	     -2.24264006	      0.00000000	     16.84319710	     11.90305016	     -5.73545140	    -15.58579584	      9.10911343	     -8.17824414	      0.00000000	     -8.22600411	    -11.82452507	      2.55354894
      5.95500000	     -2.85122739	      9.52512428	     -4.61773691	      1.86228298	      1.01826383	     -0.28053721	     12.01301809	    -14.02884263	     -4.86020720	    -65.62902656	     -7.08380883	     -2.06442537	      0.00000000	     16.20764774	     12.01390388	     -5.47959902	    -15.25745783	      9.31947157	     -8.21466106	      0.00000000	     -8.29713094	    -11.76487892	      2.31670743
      5.96000000	     -2.75939262	      9.55789062	     -4.55874799	      1.86865195	      1.01913399	     -0.28112208	     12.68306308	    -14.05133620	     -4.89505320	    -66.23136185	     -5.58836171	     -1.83672822	      0.00000000	     15.50527803	     12.20350088	     -5.10272127	    -14.84174330	      9.35166127	     -8.54832674	      0.00000000	     -8.39344196	    -11.74088131	      2.10274923
      5.96500000	     -2.69339887	      9.49789885	     -4.45531583	      1.87497009	      1.02001595	     -0.28165841	     13.33826282	    -13.96007614	     -4.98146230	    -66.74006199	     -4.09933752	     -1.56815737	      0.00000000	     14.83550234	     12.28403612	     -4.76692456	    -14.47049885	      9.48897200	     -8.71302401	      0.00000000	     -8.47441636	    -11.61010654	      1.85067791
      5.97000000	     -2.60334088	      9.47273649	     -4.33252556	      1.88134400	      1.02095091	     -0.28225044	     13.94820840	    -13.92234927	     -5.11273395	    -67.17026667	     -2.62815383	     -1.30632212	      0.00000000	     14.09247604	     12.41995883	     -4.26423331	    -14.00872546	      9.45541596	     -9.04818239	      0.00000000	     -8.57051949	    -11.52026260	      1.59410749
      5.97500000	     -2.51775913	      9.39885285	     -4.19242665	      1.88769205	      1.02188145	     -0.28285843	     14.54155863	    -13.83233816	     -5.27501606	    -67.52512845	     -1.22696437	     -1.03720241	      0.00000000	     13.34758299	     12.50212775	     -3.76164248	    -13.54876058	      9.46430665	     -9.36368657	      0.00000000	     -8.66697568	    -11.36633793	      1.31235286
      5.98000000	     -2.43433614	      9.30427559	     -4.03422387	      1.89402788	      1.02281589	     -0.28347700	     15.11799233	    -13.72344386	     -5.47116916	    -67.80622726	      0.09883767	     -0.77807233	      0.00000000	     12.59111362	     12.56020569	     -3.22435207	    -13.07054954	      9.44590156	     -9.69529774	      0.00000000	     -8.76191332	    -11.18660430	      1.02267860
      5.98500000	     -2.34022316	      9.19630482	     -3.86563828	      1.90034080	      1.02374689	     -0.28411452	     15.67191737	    -13.60462401	     -5.69253981	    -68.02228924	      1.32251350	     -0.54673301	      0.00000000	     11.80577297	     12.60374300	     -2.61159441	    -12.56585328	      9.40777085	    -10.07264685	      0.00000000	     -8.87414703	    -10.98953903	      0.71973247
      5.99000000	     -2.27160276	      9.06000811	     -3.67123151	      1.90664869	      1.02467287	     -0.28473177	     16.22371725	    -13.45406536	     -5.95091019	    -68.15735691	      2.48473764	     -0.30290132	      0.00000000	     11.05227303	     12.60211178	     -2.08543017	    -12.07511540	      9.36075037	    -10.36872357	      0.00000000	     -8.95422763	    -10.75888548	      0.42118644
      5.99500000	     -2.19985967	      8.91327266	     -3.46970537	      1.91293040	      1.02557632	     -0.28535991	     16.76293111	    -13.29394971	     -6.22543143	    -68.23214960	      3.55257669	     -0.07448375	      0.00000000	     10.28326090	     12.58462851	     -1.50691373	    -11.56407472	      9.30104263	    -10.69476301	      0.00000000	     -9.04155665	    -10.51601704	      0.11314900
      6.00000000	     -2.11330758	      8.76190129	     -3.26663514	      1.91918524	      1.02645835	     -0.28598890	     17.27990584	    -13.13072352	     -6.51337260	    -68.24910142	      4.52856959	      0.13228700	      0.00000000	      9.48584119	     12.55630384	     -0.87168431	    -11.03045377	      9.23733700	    -11.05657439	      0.00000000	     -9.14955576	    -10.26714122	     -0.19069011
      6.00500000	     -2.04321734	      8.59271801	     -3.05490232	      1.92542865	      1.02731853	     -0.28658554	     17.79520385	    -12.94218160	     -6.81007394	    -68.19704785	      5.46454320	      0.37373454	      0.00000000	      8.70874815	     12.49351196	     -0.29701452	    -10.50047713	      9.16383384	    -11.36424427	      0.00000000	     -9.23713401	    -10.00050666	     -0.49227144
      6.01000000	     -1.99297390	      8.40888687	     -2.83399303	      1.93164590	      1.02814586	     -0.28715476	     18.31510738	    -12.73047512	     -7.10881331	    -68.07917715	      6.36571898	      0.65913429	      0.00000000	      7.95846808	     12.40123539	      0.21694749	     -9.97546017	      9.07753587	    -11.63169754	      0.00000000	     -9.30266981	     -9.71714202	     -0.79917681
      6.01500000	     -1.93061493	      8.22090376	     -2.61612252	      1.93784262	      1.02893916	     -0.28771319	     18.81322376	    -12.51173241	     -7.40941112	    -67.90321941	      7.23179536	      0.95215760	      0.00000000	      7.18309202	     12.29752274	      0.79898717	     -9.42757935	      8.98088565	    -11.94972216	      0.00000000	     -9.38385572	     -9.43138952	     -1.09177521
      6.02000000	     -1.93305421	      8.00365601	     -2.48710892	      1.94395102	      1.02957278	     -0.28805675	     19.40812275	    -12.20323754	     -7.59186226	    -67.68511480	      8.07194320	      1.27808906	      0.00000000	      6.51910017	     12.12669600	      1.14799754	     -8.93193546	      9.04816453	    -12.06600794	      0.00000000	     -9.38200145	     -9.13038424	     -1.27313597
      6.02500000	     -1.82625441	      7.82284277	     -2.17684060	      1.95017502	      1.03038403	     -0.28876835	     19.79239270	    -12.03197075	     -7.99657429	    -67.36862726	      8.92480070	      1.64511262	      0.00000000	      5.65468817	     12.03512825	      1.91885254	     -8.31465572	      8.77062044	    -12.59217977	      0.00000000	     -9.52338779	     -8.83642677	     -1.67411344
      6.03000000	     -1.75196670	      7.60612377	     -1.98783381	      1.95633025	      1.03106532	     -0.28922949	     20.24106675	    -11.75479597	     -8.25724306	    -67.00221281	      9.76852391	      2.03597772	      0.00000000	      4.85405872	     11.87002972	      2.49095882	     -7.72186613	      8.63308185	    -12.98140269	      0.00000000	     -9.61155777	     -8.52332399	     -1.92718304
      6.03500000	     -1.70654104	      7.38614164	     -1.78199870	      1.96244909	      1.03167399	     -0.28967221	     20.70207789	    -11.46709840	     -8.51616236	    -66.57060373	     10.61287195	      2.45749062	      0.00000000	      4.09715947	     11.68989622	      3.01468094	     -7.14625103	      8.50531519	    -13.32379006	      0.00000000	     -9.67246523	     -8.20732799	     -2.19912657
      6.04000000	     -1.66039769	      7.16177751	     -1.58658695	      1.96854638	      1.03222707	     -0.29009101	     21.14939032	    -11.16524360	     -8.75705641	    -66.07350327	     11.45237583	      2.88910896	      0.00000000	      3.33787990	     11.49628409	      3.53909491	     -6.55856579	      8.36990469	    -13.69332005	      0.00000000	     -9.73280664	     -7.88360482	     -2.45860691
      6.04500000	     -1.61750041	      6.93448901	     -1.39556454	      1.97462423	      1.03273316	     -0.29045862	     21.58165842	    -10.85160064	     -8.99125219	    -65.50459054	     12.28733628	      3.31824180	      0.00000000	      2.58558132	     11.28722294	      4.05465095	     -5.97062690	      8.22055905	    -14.06078169	      0.00000000	     -9.79093176	     -7.56771742	     -2.71065963
      6.05000000	     -1.58098701	      6.70775633	     -1.21305217	      1.98067496	      1.03317548	     -0.29079407	     22.00744966	    -10.52780061	     -9.20476722	    -64.86941875	     13.09575800	      3.73129045	      0.00000000	      1.84541110	     11.06913210	      4.54123218	     -5.38229006	      8.07762407	    -14.41897678	      0.00000000	     -9.84236285	     -7.25212629	     -2.95001658
      6.05500000	     -1.55423631	      6.48444820	     -1.03603726	      1.98670078	      1.03355122	     -0.29109204	     22.42880795	    -10.19921298	     -9.40352334	    -64.16832431	     13.86577283	      4.11651444	      0.00000000	      1.12387583	     10.84449273	      4.99340856	     -4.80021704	      7.94284212	    -14.75006631	      0.00000000	     -9.88341549	     -6.94343047	     -3.18592823
      6.06000000	     -1.53667063	      6.26642741	     -0.86703985	      1.99270283	      1.03386346	     -0.29134666	     22.84525913	     -9.86716584	     -9.58544605	    -63.40141350	     14.58642732	      4.45824674	      0.00000000	      0.42058398	     10.61563383	      5.40964857	     -4.22521978	      7.81540294	    -15.05211048	      0.00000000	     -9.91584643	     -6.64517158	     -3.41257652
      6.06500000	     -1.60738845	      6.08898572	     -0.76379513	      1.99863422	      1.03396604	     -0.29144810	     23.37453334	     -9.53559925	     -9.65776279	    -62.59823392	     15.27883782	      4.78660287	      0.00000000	     -0.13027276	     10.42181533	      5.53335386	     -3.73255246	      7.83890113	    -15.09447591	      0.00000000	     -9.84105643	     -6.41294976	     -3.56076564
      6.07000000	     -1.53682006	      5.85302075	     -0.52950330	      2.00463589	      1.03428209	     -0.29177176	     23.66619377	     -9.21572400	     -9.92818928	    -61.67799631	     15.84166754	      4.96739887	      0.00000000	     -0.91247513	     10.15781531	      6.11706302	     -3.12072204	      7.61361134	    -15.51797412	      0.00000000	     -9.94410890	     -6.08138525	     -3.86784559
      6.07500000	     -1.52737384	      5.66813839	     -0.39988244	      2.01058490	      1.03440631	     -0.29190831	     24.05068256	     -8.89496178	    -10.04637946	    -60.73036939	     16.38421508	      5.14884369	      0.00000000	     -1.58176449	      9.94325634	      6.41541676	     -2.56673640	      7.49553154	    -15.75687843	      0.00000000	     -9.96845839	     -5.83200781	     -4.05779863
      6.08000000	     -1.54506210	      5.49177071	     -0.24701483	      2.01650375	      1.03445365	     -0.29204643	     24.44115330	     -8.59046682	    -10.18134276	    -59.72107296	     16.85428021	      5.25637102	      0.00000000	     -2.20071194	      9.73264302	      6.66619182	     -2.05073770	      7.42109442	    -15.90782165	      0.00000000	     -9.96668577	     -5.59184622	     -4.27721811
